# xmcd CD database file
# Copyright (C) 1995-1998 Ti Kan
#
# Track frame offsets:
#	150
#	15697
#	31770
#	46497
#	61215
#	74717
#	88005
#	108212
#	118227
#	129070
#	154065
#	168622
#	190187
#	204255
#	218052
#	231660
#	244432
#
# Disc length: 3381 seconds
#
# Revision: 1
# Processed by: cddbd v1.4b41PL1 Copyright (c) Steve Scherf et al.
# Submitted via: CDex 1.30
#
DISCID=f10d3311
DTITLE=Woody Mann - Lisboa
DYEAR=2000
DGENRE=Blues
TTITLE0=Cat Burglar
TTITLE1=Top Hat
TTITLE2=Lisboa
TTITLE3=Country Fair
TTITLE4=Heading East
TTITLE5=Mr. Guitar
TTITLE6=Spanish Nights
TTITLE7=And 3 Not 4
TTITLE8=A Little Love
TTITLE9=Buggy Wagon
TTITLE10=Gypsy Girl
TTITLE11=Harlequin
TTITLE12=Uptown Tales
TTITLE13=Bailaderia
TTITLE14=Slow Motion (Lennie's Lament)
TTITLE15=Crosstown Blues
TTITLE16=Blind Arthur's Break
EXTD=\nYEAR: 2000  ID3G:   0
EXTT0=
EXTT1=
EXTT2=
EXTT3=
EXTT4=
EXTT5=
EXTT6=
EXTT7=
EXTT8=
EXTT9=
EXTT10=
EXTT11=
EXTT12=
EXTT13=
EXTT14=
EXTT15=
EXTT16=
PLAYORDER=
